<?xml version="1.0" encoding="utf-8"?>
<!-- Generator: Adobe Illustrator 18.1.1, SVG Export Plug-In . SVG Version: 6.00 Build 0)  -->
<!DOCTYPE svg PUBLIC "-//W3C//DTD SVG 1.1//EN" "http://www.w3.org/Graphics/SVG/1.1/DTD/svg11.dtd">
<svg version="1.1" id="Layer_1" xmlns="http://www.w3.org/2000/svg" xmlns:xlink="http://www.w3.org/1999/xlink" x="0px" y="0px"
	 viewBox="0 0 116.6 60.2" enable-background="new 0 0 116.6 60.2" xml:space="preserve">
<text transform="matrix(1.2749 0 0 1 -589.4955 -236.0127)" fill="#939598" font-family="'SwistblnkMonthoers'" font-size="28.1682">Recording</text>
<text transform="matrix(1.2749 0 0 1 -584.9238 -96.7103)" font-family="'SwistblnkMonthoers'" font-size="26.59">Recording</text>
<text transform="matrix(1 0 0 1 -585.1104 -122.1421)" font-family="'SwistblnkMonthoers'" font-size="45.7771">Figure8</text>
<g>
	<path d="M-581.8,19.2V-16h22.5v8.4h-13.6v6h11.7v8.1h-11.7v12.6H-581.8z"/>
	<path d="M-547-7.6h-8.1V-16h8.1V-7.6z M-547,19.2h-8.1V-3.5h8.1V19.2z"/>
	<path d="M-517.8-12.9c0,1.1-0.1,2.1-0.3,2.9c-0.2,0.8-0.6,1.5-1,2.1c-0.4,0.6-0.9,1.1-1.6,1.4c-0.6,0.4-1.3,0.7-2.1,0.9
		c0.8,0.8,1.4,1.6,1.8,2.6c0.4,1,0.7,2.1,0.7,3.2c0,1.5-0.2,2.8-0.7,3.9c-0.5,1.1-1.1,2-2,2.7s-1.8,1.2-2.9,1.6
		c-1.1,0.3-2.2,0.5-3.4,0.5h-3.1c-0.9,0-1.6,0.1-2,0.4c-0.4,0.3-0.6,0.6-0.6,1.1c0,0.2,0,0.4,0.1,0.6s0.2,0.4,0.4,0.5
		c0.2,0.1,0.5,0.3,0.8,0.3c0.3,0.1,0.8,0.1,1.3,0.1h7.3c1.2,0,2.3,0.2,3.2,0.6c0.9,0.4,1.7,1,2.2,1.8c0.6,0.8,1,1.7,1.3,2.7
		s0.4,2.2,0.4,3.5c0,1.5-0.2,2.8-0.7,4s-1.1,2.1-2,2.9s-1.8,1.4-2.9,1.8c-1.1,0.4-2.2,0.6-3.4,0.6h-11.9c-0.7,0-1.4-0.2-2.1-0.5
		c-0.7-0.3-1.2-0.8-1.7-1.4c-0.5-0.6-0.9-1.3-1.2-2.1s-0.4-1.7-0.4-2.6c0-0.7,0.1-1.4,0.3-2c0.2-0.6,0.4-1.2,0.8-1.7
		c0.3-0.5,0.7-1,1.1-1.4c0.4-0.4,0.8-0.7,1.3-1c-0.6-0.6-1.2-1.3-1.5-2.1c-0.4-0.8-0.6-1.7-0.6-2.7c0-0.7,0.1-1.3,0.3-1.9
		s0.5-1.2,0.9-1.7s0.8-1,1.3-1.3c0.5-0.4,1-0.6,1.6-0.8c-0.5-0.4-0.9-0.8-1.4-1.3c-0.4-0.5-0.8-1-1.1-1.5c-0.3-0.5-0.5-1.1-0.7-1.7
		c-0.2-0.6-0.3-1.2-0.3-1.9c0-1.7,0.3-3.1,0.9-4.2c0.6-1.1,1.4-2,2.4-2.7c1-0.7,2.2-1.2,3.5-1.4c1.3-0.3,2.8-0.4,4.3-0.4
		c0.8,0,1.5,0,2,0.1c0.5,0,1,0.1,1.5,0.2c0.8-0.6,1.4-1.2,1.9-1.8c0.4-0.6,0.7-1.1,0.9-1.5c0.2-0.5,0.4-1,0.4-1.5H-517.8z
		 M-534.3,19.2c-0.6,0-1.1,0.2-1.5,0.6c-0.4,0.4-0.6,1-0.6,1.8c0,0.8,0.2,1.4,0.6,1.9s0.9,0.7,1.5,0.7h6.3c0.6,0,1.1-0.2,1.5-0.7
		c0.4-0.5,0.6-1.1,0.6-1.9s-0.2-1.4-0.6-1.8c-0.4-0.4-0.9-0.6-1.5-0.6H-534.3z M-532.4-2.9c-0.4,0.1-0.7,0.3-1,0.6s-0.5,0.6-0.6,1.1
		s-0.2,0.9-0.2,1.5c0,1.1,0.3,2,0.8,2.5s1.3,0.8,2.2,0.8c0.9,0,1.7-0.3,2.3-0.8c0.6-0.5,0.8-1.4,0.8-2.5s-0.3-2-0.8-2.5
		c-0.6-0.5-1.3-0.8-2.3-0.8C-531.7-3.1-532.1-3.1-532.4-2.9z"/>
	<path d="M-506.2,19.2h-8.6V9h8.6V19.2z"/>
	<path d="M-483.7-16c1.3,0.5,2.5,1.1,3.5,2s1.8,2,2.3,3.3c0.6,1.3,0.9,2.8,0.9,4.4c0,1-0.1,1.8-0.3,2.6c-0.2,0.7-0.4,1.4-0.7,2
		c-0.3,0.6-0.7,1.1-1.1,1.5s-0.9,0.9-1.4,1.3v0.2c0.7,0.5,1.3,1,1.8,1.5c0.5,0.5,1,1.1,1.4,1.7c0.4,0.6,0.7,1.4,0.9,2.2
		c0.2,0.8,0.3,1.7,0.3,2.8c0,1.7-0.3,3.2-0.9,4.4c-0.6,1.3-1.4,2.3-2.4,3.2c-1,0.9-2.3,1.5-3.8,2c-1.5,0.4-3.1,0.7-4.9,0.7
		c-1.8,0-3.4-0.2-4.9-0.7c-1.5-0.4-2.7-1.1-3.7-2c-1-0.9-1.8-1.9-2.4-3.2c-0.6-1.3-0.8-2.8-0.8-4.4c0-1,0.1-2,0.3-2.8
		s0.5-1.5,0.9-2.2c0.4-0.6,0.8-1.2,1.4-1.7c0.5-0.5,1.1-1,1.8-1.5V1.2c-0.5-0.4-0.9-0.9-1.4-1.3s-0.8-1-1.1-1.5
		c-0.3-0.6-0.5-1.2-0.7-2c-0.2-0.7-0.3-1.6-0.3-2.6c0-1.7,0.3-3.1,0.8-4.4c0.6-1.3,1.3-2.4,2.3-3.3s2.1-1.5,3.4-2s2.7-0.7,4.2-0.7
		S-485-16.4-483.7-16z M-489.4-9.5c-0.5,0.2-0.8,0.4-1.2,0.7c-0.3,0.3-0.6,0.7-0.8,1.2c-0.2,0.5-0.3,1.1-0.3,1.8
		c0,0.7,0.1,1.3,0.3,1.7c0.2,0.5,0.5,0.9,0.8,1.2c0.3,0.3,0.7,0.5,1.2,0.7s0.9,0.2,1.4,0.2c0.5,0,1-0.1,1.4-0.2
		c0.5-0.1,0.9-0.4,1.2-0.7c0.4-0.3,0.6-0.7,0.9-1.2c0.2-0.5,0.3-1.1,0.3-1.7c0-0.7-0.1-1.3-0.3-1.8c-0.2-0.5-0.5-0.9-0.8-1.2
		c-0.3-0.3-0.7-0.5-1.2-0.7c-0.5-0.1-1-0.2-1.5-0.2S-489-9.7-489.4-9.5z M-489.3,4.8c-0.5,0.2-0.9,0.5-1.2,0.8
		c-0.3,0.4-0.6,0.8-0.8,1.3c-0.2,0.5-0.3,1.1-0.3,1.8c0,0.7,0.1,1.3,0.3,1.8c0.2,0.5,0.4,1,0.8,1.3s0.7,0.6,1.2,0.8
		c0.5,0.2,1,0.3,1.5,0.3s1.1-0.1,1.5-0.3c0.5-0.2,0.9-0.4,1.2-0.8c0.3-0.3,0.6-0.8,0.8-1.3c0.2-0.5,0.3-1.1,0.3-1.8
		c0-0.7-0.1-1.3-0.3-1.8c-0.2-0.5-0.5-1-0.9-1.3c-0.4-0.3-0.8-0.6-1.2-0.8c-0.5-0.2-0.9-0.3-1.4-0.3C-488.4,4.5-488.9,4.6-489.3,4.8
		z"/>
</g>
<text transform="matrix(1.0815 0 0 1 -419.5146 38.3164)" fill="#6D6E71" font-family="'ArchivoBlack-Regular'" font-size="14.8369">Recording</text>
<g>
	<path fill="#6D6E71" d="M-418.2,21.9V-6.1h22.7v6.7h-13.7v4.8h11.8v6.4h-11.8v10.1H-418.2z"/>
	<path fill="#6D6E71" d="M-383.2,21.9h-8.1V5.4h8.1V21.9z"/>
	<path fill="#6D6E71" d="M-355.4,26.2c0-1.3-0.6-2.4-1.9-3.1c-1.3-0.7-2.9-1.1-4.7-1.1c0,0-5.4,0-8.4,0c-3,0-5.7-0.9-6.4-1.5
		c-0.7-0.6-1.2-1-1.5-1.6c-0.4-0.6-0.6-1.4-0.6-2.1c0-0.5,0.1-1.1,0.3-1.6c0.2-0.5,0.5-0.9,0.9-1.4s0.8-0.8,1.3-1.1
		c0.5-0.3,1-0.5,1.6-0.7c-0.5-0.3-1-0.7-1.4-1c-0.4-0.4-0.8-0.8-1.1-1.2c-0.3-0.4-0.5-0.9-0.7-1.4c-0.2-0.5-0.3-1-0.3-1.5
		c0-1.3,0.3-2.4,0.9-3.3c0.6-0.9,1.4-1.6,2.4-2.2s2.2-0.9,3.5-1.1c1.3-0.2,2.8-0.3,4.3-0.3c0.8,0,1.5,0,2.1,0.1c0.5,0,1,0.1,1.5,0.2
		c0.8-0.5,1.4-1,1.9-1.4c0.4-0.5,0.7-0.9,0.9-1.2c0.2-0.4,0.4-0.8,0.4-1.2h6.7c0,0.9-0.1,1.6-0.3,2.3c-0.2,0.6-0.6,1.2-1,1.7
		c-0.4,0.5-1,0.8-1.6,1.1c-0.6,0.3-1.3,0.6-2.1,0.8c0.8,0.6,1.4,1.3,1.9,2.1c0.4,0.8,0.7,1.6,0.7,2.6c0,1.2-0.2,2.2-0.7,3.1
		c-0.5,0.9-1.2,1.6-2,2.2c-0.8,0.6-1.8,1-2.9,1.3c-1.1,0.3-2.2,0.4-3.5,0.4h-3.1c-0.9,0-1.6,0.1-2,0.3c-0.4,0.2-0.6,0.5-0.6,0.9
		c0,0.2,0,0.3,0.1,0.5c0.1,0.2,0.2,0.3,0.4,0.4s0.5,0.2,0.8,0.3c0.3,0.1,0.8,0.1,1.3,0.1h7.4c1.2,0,2.3,0.2,3.2,0.5s1.7,0.8,2.3,1.4
		s1,1.3,1.3,2.2c0.3,0.8,0.4,1.8,0.4,2.8c0,1.2-0.2,2.3-0.7,3.2c-0.5,0.9-1.2,1.7-2,2.3C-356.5,28.6-355.4,27.5-355.4,26.2z
		 M-368.4,4.3c-0.4,0.1-0.7,0.3-1,0.5c-0.3,0.2-0.5,0.5-0.6,0.8c-0.2,0.3-0.2,0.7-0.2,1.2c0,0.9,0.3,1.6,0.8,2
		c0.5,0.4,1.3,0.7,2.3,0.7c1,0,1.7-0.2,2.3-0.7c0.6-0.4,0.8-1.1,0.8-2s-0.3-1.6-0.8-2c-0.6-0.4-1.3-0.7-2.3-0.7
		C-367.7,4.1-368.1,4.2-368.4,4.3z"/>
	<path fill="#6D6E71" d="M-319.3-6.1c1.3,0.4,2.5,0.9,3.5,1.6c1,0.7,1.8,1.6,2.3,2.6c0.6,1,0.9,2.2,0.9,3.5c0,0.8-0.1,1.5-0.3,2.1
		c-0.2,0.6-0.4,1.1-0.7,1.6c-0.3,0.5-0.7,0.9-1.1,1.2c-0.4,0.4-0.9,0.7-1.4,1.1v0.2c0.7,0.4,1.3,0.8,1.8,1.2c0.6,0.4,1,0.9,1.4,1.4
		c0.4,0.5,0.7,1.1,0.9,1.7s0.3,1.4,0.3,2.2c0,1.3-0.3,2.5-0.9,3.5s-1.4,1.9-2.4,2.6c-1,0.7-2.3,1.2-3.8,1.6
		c-1.5,0.4-3.1,0.5-4.9,0.5c-1.8,0-3.5-0.2-4.9-0.5c-1.5-0.4-2.7-0.9-3.7-1.6c-1-0.7-1.8-1.6-2.4-2.6s-0.8-2.2-0.8-3.5
		c0-0.8,0.1-1.6,0.3-2.2c0.2-0.6,0.5-1.2,0.9-1.7c0.4-0.5,0.9-1,1.4-1.4c0.5-0.4,1.2-0.8,1.8-1.2V7.6c-0.5-0.3-0.9-0.7-1.4-1.1
		s-0.8-0.8-1.1-1.2c-0.3-0.5-0.5-1-0.7-1.6s-0.3-1.3-0.3-2.1c0-1.3,0.3-2.5,0.8-3.5c0.6-1,1.3-1.9,2.3-2.6c1-0.7,2.1-1.2,3.4-1.6
		s2.7-0.5,4.2-0.5S-320.7-6.5-319.3-6.1z M-325.1-0.9c-0.5,0.1-0.9,0.3-1.2,0.5s-0.6,0.6-0.8,1s-0.3,0.9-0.3,1.4
		c0,0.5,0.1,1,0.3,1.4c0.2,0.4,0.5,0.7,0.8,0.9c0.3,0.2,0.7,0.4,1.2,0.5c0.5,0.1,0.9,0.2,1.4,0.2c0.5,0,1-0.1,1.5-0.2
		c0.5-0.1,0.9-0.3,1.2-0.5s0.6-0.6,0.9-0.9c0.2-0.4,0.3-0.9,0.3-1.4c0-0.6-0.1-1-0.3-1.4c-0.2-0.4-0.5-0.7-0.8-1
		c-0.3-0.2-0.8-0.4-1.2-0.5c-0.5-0.1-1-0.2-1.5-0.2S-324.7-1.1-325.1-0.9z M-325,10.4c-0.5,0.1-0.9,0.4-1.2,0.6
		c-0.3,0.3-0.6,0.6-0.8,1c-0.2,0.4-0.3,0.9-0.3,1.4c0,0.6,0.1,1,0.3,1.5c0.2,0.4,0.4,0.8,0.8,1c0.3,0.3,0.7,0.5,1.2,0.6
		c0.5,0.1,1,0.2,1.5,0.2s1.1-0.1,1.5-0.2c0.5-0.1,0.9-0.3,1.2-0.6c0.3-0.3,0.6-0.6,0.8-1c0.2-0.4,0.3-0.9,0.3-1.5
		c0-0.5-0.1-1-0.3-1.4c-0.2-0.4-0.5-0.8-0.9-1s-0.8-0.5-1.2-0.6c-0.5-0.1-1-0.2-1.5-0.2C-324.1,10.2-324.6,10.3-325,10.4z"/>
</g>
<g>
	<linearGradient id="SVGID_1_" gradientUnits="userSpaceOnUse" x1="-587.9515" y1="-490.1846" x2="-576.9515" y2="-451.6846">
		<stop  offset="0" style="stop-color:#FFF33B"/>
		<stop  offset="1" style="stop-color:#8DC63F"/>
	</linearGradient>
	<path fill="url(#SVGID_1_)" d="M-583.9-475.4h-1.7v10h-3.6v-23.8h5.2c3.9,0,6,2.1,6,6v1.7c0,2.5-0.9,4.3-2.5,5.2l3.3,10.8h-3.8
		L-583.9-475.4z M-585.5-478.7h1.5c1.7,0,2.5-0.9,2.5-2.9v-1.2c0-2-0.8-2.9-2.5-2.9h-1.5V-478.7z"/>
	<linearGradient id="SVGID_2_" gradientUnits="userSpaceOnUse" x1="-574.3737" y1="-494.064" x2="-563.3737" y2="-455.564">
		<stop  offset="0" style="stop-color:#FFF33B"/>
		<stop  offset="1" style="stop-color:#8DC63F"/>
	</linearGradient>
	<path fill="url(#SVGID_2_)" d="M-571-485.7v6.7h5.3v3.3h-5.3v7.1h6.5v3.3h-10.1v-23.8h10.1v3.3H-571z"/>
	<linearGradient id="SVGID_3_" gradientUnits="userSpaceOnUse" x1="-562.0696" y1="-497.5794" x2="-551.0696" y2="-459.0794">
		<stop  offset="0" style="stop-color:#FFF33B"/>
		<stop  offset="1" style="stop-color:#8DC63F"/>
	</linearGradient>
	<path fill="url(#SVGID_3_)" d="M-550.7-483.7v2.1l-3.5,0.2v-1.9c0-1.9-0.7-2.8-2-2.8c-1.3,0-2,0.8-2,2.4v13c0,1.6,0.7,2.4,2,2.4
		c1.3,0,2-0.8,2-2.8v-2.6l3.5,0.2v2.9c0,3.6-2.1,5.7-5.6,5.7c-3.5,0-5.5-2.1-5.5-5.7v-13c0-3.6,2-5.7,5.5-5.7
		C-552.7-489.4-550.7-487.3-550.7-483.7z"/>
	<linearGradient id="SVGID_4_" gradientUnits="userSpaceOnUse" x1="-549.0076" y1="-501.3114" x2="-538.0076" y2="-462.8114">
		<stop  offset="0" style="stop-color:#FFF33B"/>
		<stop  offset="1" style="stop-color:#8DC63F"/>
	</linearGradient>
	<path fill="url(#SVGID_4_)" d="M-536.3-483.4v12.4c0,3.7-2.2,6-5.8,6c-3.6,0-5.8-2.3-5.8-6v-12.4c0-3.7,2.2-6,5.8-6
		C-538.5-489.4-536.3-487.1-536.3-483.4z M-544.3-483.4v12.4c0,1.8,0.8,2.7,2.2,2.7c1.4,0,2.2-1,2.2-2.7v-12.4
		c0-1.8-0.8-2.7-2.2-2.7C-543.5-486.1-544.3-485.1-544.3-483.4z"/>
	<linearGradient id="SVGID_5_" gradientUnits="userSpaceOnUse" x1="-536.1833" y1="-504.9755" x2="-525.1833" y2="-466.4755">
		<stop  offset="0" style="stop-color:#FFF33B"/>
		<stop  offset="1" style="stop-color:#8DC63F"/>
	</linearGradient>
	<path fill="url(#SVGID_5_)" d="M-527.9-475.4h-1.7v10h-3.6v-23.8h5.2c3.9,0,6,2.1,6,6v1.7c0,2.5-0.9,4.3-2.5,5.2l3.3,10.8h-3.8
		L-527.9-475.4z M-529.6-478.7h1.5c1.7,0,2.5-0.9,2.5-2.9v-1.2c0-2-0.8-2.9-2.5-2.9h-1.5V-478.7z"/>
	<linearGradient id="SVGID_6_" gradientUnits="userSpaceOnUse" x1="-522.7614" y1="-508.8103" x2="-511.7614" y2="-470.3103">
		<stop  offset="0" style="stop-color:#FFF33B"/>
		<stop  offset="1" style="stop-color:#8DC63F"/>
	</linearGradient>
	<path fill="url(#SVGID_6_)" d="M-513.5-489.1c3.9,0,6,2.1,6,6v11.7c0,3.9-2.1,6-6,6h-5.2v-23.8H-513.5z M-515-468.6h1.4
		c1.7,0,2.5-0.9,2.5-2.9v-11.3c0-2-0.8-2.9-2.5-2.9h-1.4V-468.6z"/>
	<linearGradient id="SVGID_7_" gradientUnits="userSpaceOnUse" x1="-512.0874" y1="-511.86" x2="-501.0874" y2="-473.36">
		<stop  offset="0" style="stop-color:#FFF33B"/>
		<stop  offset="1" style="stop-color:#8DC63F"/>
	</linearGradient>
	<path fill="url(#SVGID_7_)" d="M-504-465.3v-23.8h3.6v23.8H-504z"/>
	<linearGradient id="SVGID_8_" gradientUnits="userSpaceOnUse" x1="-501.4296" y1="-514.9052" x2="-490.4296" y2="-476.4052">
		<stop  offset="0" style="stop-color:#FFF33B"/>
		<stop  offset="1" style="stop-color:#8DC63F"/>
	</linearGradient>
	<path fill="url(#SVGID_8_)" d="M-488.3-465.3l-4.7-15.8h-0.1v15.8h-3.4v-23.8h4l4.2,14.2h0.1v-14.2h3.4v23.8H-488.3z"/>
	<linearGradient id="SVGID_9_" gradientUnits="userSpaceOnUse" x1="-487.5717" y1="-518.8646" x2="-476.5717" y2="-480.3645">
		<stop  offset="0" style="stop-color:#FFF33B"/>
		<stop  offset="1" style="stop-color:#8DC63F"/>
	</linearGradient>
	<path fill="url(#SVGID_9_)" d="M-470-483.7v1.6l-3.5,0.2v-1.4c0-1.9-0.7-2.8-2.1-2.8c-1.4,0-2.1,0.8-2.1,2.4v13
		c0,1.6,0.7,2.4,2.1,2.4s2.1-0.8,2.1-2.8v-4.1h-2v-3.3h5.6v7.8c0,3.6-2.1,5.7-5.7,5.7c-3.6,0-5.6-2.1-5.6-5.7v-13
		c0-3.6,2-5.7,5.6-5.7C-472.1-489.4-470-487.3-470-483.7z"/>
</g>
<text transform="matrix(1 0 0 1 -591.9283 -495.8486)" font-family="'FabfeltScript-Bold'" font-size="41.3982">Figure 8</text>
<g>
	<linearGradient id="SVGID_10_" gradientUnits="userSpaceOnUse" x1="-587.9515" y1="-375.5179" x2="-576.9515" y2="-337.0179">
		<stop  offset="0" style="stop-color:#FFF33B"/>
		<stop  offset="1" style="stop-color:#8DC63F"/>
	</linearGradient>
	<path fill="url(#SVGID_10_)" d="M-583.9-360.7h-1.7v10h-3.6v-23.8h5.2c3.9,0,6,2.1,6,6v1.7c0,2.5-0.9,4.3-2.5,5.2l3.3,10.8h-3.8
		L-583.9-360.7z M-585.5-364h1.5c1.7,0,2.5-0.9,2.5-2.9v-1.2c0-2-0.8-2.9-2.5-2.9h-1.5V-364z"/>
	<linearGradient id="SVGID_11_" gradientUnits="userSpaceOnUse" x1="-574.3737" y1="-379.3973" x2="-563.3737" y2="-340.8973">
		<stop  offset="0" style="stop-color:#FFF33B"/>
		<stop  offset="1" style="stop-color:#8DC63F"/>
	</linearGradient>
	<path fill="url(#SVGID_11_)" d="M-571-371.1v6.7h5.3v3.3h-5.3v7.1h6.5v3.3h-10.1v-23.8h10.1v3.3H-571z"/>
	<linearGradient id="SVGID_12_" gradientUnits="userSpaceOnUse" x1="-562.0696" y1="-382.9128" x2="-551.0696" y2="-344.4128">
		<stop  offset="0" style="stop-color:#FFF33B"/>
		<stop  offset="1" style="stop-color:#8DC63F"/>
	</linearGradient>
	<path fill="url(#SVGID_12_)" d="M-550.7-369v2.1l-3.5,0.2v-1.9c0-1.9-0.7-2.8-2-2.8c-1.3,0-2,0.8-2,2.4v13c0,1.6,0.7,2.4,2,2.4
		c1.3,0,2-0.8,2-2.8v-2.6l3.5,0.2v2.9c0,3.6-2.1,5.7-5.6,5.7c-3.5,0-5.5-2.1-5.5-5.7v-13c0-3.6,2-5.7,5.5-5.7
		C-552.7-374.7-550.7-372.6-550.7-369z"/>
	<linearGradient id="SVGID_13_" gradientUnits="userSpaceOnUse" x1="-549.0076" y1="-386.6448" x2="-538.0076" y2="-348.1448">
		<stop  offset="0" style="stop-color:#FFF33B"/>
		<stop  offset="1" style="stop-color:#8DC63F"/>
	</linearGradient>
	<path fill="url(#SVGID_13_)" d="M-536.3-368.7v12.4c0,3.7-2.2,6-5.8,6c-3.6,0-5.8-2.3-5.8-6v-12.4c0-3.7,2.2-6,5.8-6
		C-538.5-374.7-536.3-372.5-536.3-368.7z M-544.3-368.7v12.4c0,1.8,0.8,2.7,2.2,2.7c1.4,0,2.2-1,2.2-2.7v-12.4
		c0-1.8-0.8-2.7-2.2-2.7C-543.5-371.4-544.3-370.5-544.3-368.7z"/>
	<linearGradient id="SVGID_14_" gradientUnits="userSpaceOnUse" x1="-536.1833" y1="-390.3088" x2="-525.1833" y2="-351.8088">
		<stop  offset="0" style="stop-color:#FFF33B"/>
		<stop  offset="1" style="stop-color:#8DC63F"/>
	</linearGradient>
	<path fill="url(#SVGID_14_)" d="M-527.9-360.7h-1.7v10h-3.6v-23.8h5.2c3.9,0,6,2.1,6,6v1.7c0,2.5-0.9,4.3-2.5,5.2l3.3,10.8h-3.8
		L-527.9-360.7z M-529.6-364h1.5c1.7,0,2.5-0.9,2.5-2.9v-1.2c0-2-0.8-2.9-2.5-2.9h-1.5V-364z"/>
	<linearGradient id="SVGID_15_" gradientUnits="userSpaceOnUse" x1="-522.7614" y1="-394.1437" x2="-511.7614" y2="-355.6437">
		<stop  offset="0" style="stop-color:#FFF33B"/>
		<stop  offset="1" style="stop-color:#8DC63F"/>
	</linearGradient>
	<path fill="url(#SVGID_15_)" d="M-513.5-374.4c3.9,0,6,2.1,6,6v11.7c0,3.9-2.1,6-6,6h-5.2v-23.8H-513.5z M-515-354h1.4
		c1.7,0,2.5-0.9,2.5-2.9v-11.3c0-2-0.8-2.9-2.5-2.9h-1.4V-354z"/>
	<linearGradient id="SVGID_16_" gradientUnits="userSpaceOnUse" x1="-512.0874" y1="-397.1934" x2="-501.0874" y2="-358.6934">
		<stop  offset="0" style="stop-color:#FFF33B"/>
		<stop  offset="1" style="stop-color:#8DC63F"/>
	</linearGradient>
	<path fill="url(#SVGID_16_)" d="M-504-350.6v-23.8h3.6v23.8H-504z"/>
	<linearGradient id="SVGID_17_" gradientUnits="userSpaceOnUse" x1="-501.4296" y1="-400.2385" x2="-490.4296" y2="-361.7385">
		<stop  offset="0" style="stop-color:#FFF33B"/>
		<stop  offset="1" style="stop-color:#8DC63F"/>
	</linearGradient>
	<path fill="url(#SVGID_17_)" d="M-488.3-350.6l-4.7-15.8h-0.1v15.8h-3.4v-23.8h4l4.2,14.2h0.1v-14.2h3.4v23.8H-488.3z"/>
	<linearGradient id="SVGID_18_" gradientUnits="userSpaceOnUse" x1="-487.5717" y1="-404.1979" x2="-476.5717" y2="-365.6979">
		<stop  offset="0" style="stop-color:#FFF33B"/>
		<stop  offset="1" style="stop-color:#8DC63F"/>
	</linearGradient>
	<path fill="url(#SVGID_18_)" d="M-470-369v1.6l-3.5,0.2v-1.4c0-1.9-0.7-2.8-2.1-2.8c-1.4,0-2.1,0.8-2.1,2.4v13
		c0,1.6,0.7,2.4,2.1,2.4s2.1-0.8,2.1-2.8v-4.1h-2v-3.3h5.6v7.8c0,3.6-2.1,5.7-5.7,5.7c-3.6,0-5.6-2.1-5.6-5.7v-13
		c0-3.6,2-5.7,5.6-5.7C-472.1-374.7-470-372.6-470-369z"/>
</g>
<text transform="matrix(1 0 0 1 -592.4717 -377.8486)"><tspan x="0" y="0" font-family="'AmandesSales'" font-size="41.3982">Figure</tspan><tspan x="97.7" y="0" font-family="'AmandesSales'" font-size="60">8</tspan></text>
<text transform="matrix(1 0 0 1 -589.0395 -261.3438)"><tspan x="0" y="0" font-family="'Bernase-Regular'" font-size="47.1475">Fig</tspan><tspan x="68" y="0" font-family="'Bernase-Regular'" font-size="47.1475" letter-spacing="5">.</tspan><tspan x="87.1" y="0" font-family="'Bernase-Regular'" font-size="47.1475">8</tspan></text>
<text transform="matrix(1 0 0 1 -2.9163 -489.8497)"><tspan x="0" y="0" font-family="'Arvo-Bold'" font-size="47.1475">Fig</tspan><tspan x="77.6" y="0" font-family="'Arvo-Bold'" font-size="47.1475" letter-spacing="5">.</tspan><tspan x="95.4" y="0" font-family="'Arvo-Bold'" font-size="47.1475">8</tspan></text>
<rect x="-6.7" y="-482.5" fill="#FFFFFF" width="130.5" height="20"/>
<text transform="matrix(1 0 0 1 -1.3398 -466.0459)" font-family="'Arvo-Bold'" font-size="18.7034">Recording</text>
<text transform="matrix(1 0 0 1 -3.7949 -367.5723)"><tspan x="0" y="0" font-family="'Asap-Bold'" font-size="57.3043">Fig</tspan><tspan x="75.3" y="0" font-family="'Asap-Bold'" font-size="57.3043" letter-spacing="6">.</tspan><tspan x="93.5" y="0" font-family="'Asap-Bold'" font-size="57.3043">8</tspan></text>
<text transform="matrix(1 0 0 1 -3.2285 -336.5888)" font-family="'Asap-Regular'" font-size="22.7326">Recording</text>
<text transform="matrix(1.1872 0 0 1 -2.8877 -242.2442)"><tspan x="0" y="0" font-family="'BebasKai'" font-size="58.4977">Fig</tspan><tspan x="58.7" y="0" font-family="'BebasKai'" font-size="58.4977" letter-spacing="6.7">.</tspan><tspan x="79" y="0" font-family="'BebasKai'" font-size="58.4977">8</tspan></text>
<text transform="matrix(1.1872 0 0 1 -0.1426 -215.5529)" font-family="'BebasKai'" font-size="27.4585">Recording</text>
<circle fill="#6D6E71" cx="-345" cy="18.1" r="3.7"/>
<circle fill="#6D6E71" cx="-387.2" cy="-2.5" r="3.7"/>
<text transform="matrix(1 0 0 1 -775.1724 -482.4743)" fill="#757576" font-family="'ArialMT'" font-size="14">1</text>
<text transform="matrix(1 0 0 1 -775.1725 -367.5721)" fill="#757576" font-family="'ArialMT'" font-size="14">2</text>
<text transform="matrix(1 0 0 1 -775.1725 -261.3436)" fill="#757576" font-family="'ArialMT'" font-size="14">3</text>
<text transform="matrix(1 0 0 1 -775.1725 -122.1419)" fill="#757576" font-family="'ArialMT'" font-size="14">4</text>
<text transform="matrix(1 0 0 1 -775.1724 14.3919)" fill="#757576" font-family="'ArialMT'" font-size="14">5 / 5A</text>
<text transform="matrix(1 0 0 1 -190.1019 -489.8495)" fill="#757576" font-family="'ArialMT'" font-size="14">6</text>
<text transform="matrix(1 0 0 1 -190.1019 -367.572)" fill="#757576" font-family="'ArialMT'" font-size="14">7</text>
<text transform="matrix(1 0 0 1 -190.1019 -242.2439)" fill="#757576" font-family="'ArialMT'" font-size="14">8</text>
<text transform="matrix(0.9825 0 0 1 -10.8311 -112.9004)" font-family="'EkMukta-ExtraBold'" font-size="38.0577">Figure 8</text>
<text transform="matrix(1.0224 0 0 1 -8.9132 -87.369)" font-family="'BebasKai'" font-size="19.3246" letter-spacing="6.8">Recording</text>
<text transform="matrix(1.0224 0 0 1 -582.4995 43.7334)" font-family="'BebasKai'" font-size="15.8519" letter-spacing="5.9">Recording</text>
<text transform="matrix(1 0 0 1 -190.1019 -110.0558)" fill="#757576" font-family="'ArialMT'" font-size="14">9</text>
<g>
	<path d="M16.7,29.3V30H0v-0.7h3.2V2L0,1.5l0.2-0.7c2.7,0.5,5.5,0.7,8.3,0.7s5.7-0.3,8.7-0.8C20.1,0.3,22.4,0,24,0
		c1.6,0,2.9,0.4,4.1,1.3c1.2,0.8,1.8,2,1.8,3.4s-0.5,2.6-1.6,3.5s-2.2,1.4-3.6,1.4c-1.4,0-2.6-0.4-3.5-1.1c-1-0.7-1.4-1.7-1.4-2.7
		s0.4-2,1.2-2.7c0.8-0.8,1.8-1.1,3-1.1c1.9,0,3.1,0.6,3.7,1.8c0,0.1,0.1,0.2,0.2,0.3c0.1,0.2,0.2,0.3,0.4,0.3c0.3,0,0.5-0.1,0.5-0.4
		c0-0.6-0.4-1.3-1.3-2c-0.9-0.7-1.9-1-3.2-1c-1.3,0-2.3,0.1-3.2,0.2c-0.9,0.1-2,0.3-3.4,0.5c-1.4,0.3-2.8,0.5-4.1,0.6v13.2h2
		c2,0,3.4-0.4,4.3-1.2c0.9-0.8,1.3-2.1,1.3-4h0.8v11.1h-0.8c0-1.8-0.4-3.2-1.3-4c-0.9-0.8-2.3-1.2-4.3-1.2h-2v13.3H16.7z"/>
	<path d="M30.9,11.2h-3.6v-0.7h3c3.6,0,7-0.3,10-0.8v19.5h3.1V30H27.8v-0.7h3.1V11.2z M35.6,8c-1.3,0-2.4-0.4-3.4-1.2
		C31.3,6,30.9,5.1,30.9,4c0-1.1,0.5-2.1,1.4-2.8c0.9-0.8,2-1.2,3.4-1.2C37,0,38.1,0.4,39,1.2c0.9,0.8,1.4,1.7,1.4,2.8
		c0,1.1-0.5,2.1-1.4,2.8C38,7.6,36.9,8,35.6,8z"/>
	<path d="M46.1,18c0-2.6,1.1-4.7,3.4-6.1c2.2-1.4,5-2.2,8.2-2.2c1,0,2.1,0.1,3.1,0.3c-0.8-0.8-1.3-1.7-1.3-2.9
		c0-1.1,0.5-2.1,1.4-2.9c0.9-0.8,2-1.2,3.4-1.2c1.3,0,2.4,0.3,3.3,1s1.3,1.5,1.3,2.5c0,1-0.4,1.8-1.1,2.5c-0.7,0.6-1.6,0.9-2.6,0.9
		c-1.1,0-1.9-0.3-2.6-0.8c-0.7-0.5-1-1.2-1-2c0-0.8,0.3-1.5,1-1.9C63,5,63.2,4.7,63.2,4.5c0-0.3-0.1-0.4-0.5-0.4
		c-0.2,0-0.5,0.1-0.8,0.3c-1.1,0.7-1.7,1.6-1.7,2.8c0,1.5,1,2.7,3.1,3.5c3.8,1.4,5.8,3.8,5.8,7.3c0,2.6-1.1,4.7-3.4,6.1
		c-2.2,1.4-5,2.2-8.2,2.2c-2.2,0-4.2-0.3-5.9-1c-2.1,0.8-3.2,1.5-3.2,2.4c0,0.6,0.3,0.9,0.8,1.1c0.5,0.2,1.5,0.3,2.8,0.3
		s3.4-0.3,6.2-0.8c2.9-0.6,4.7-0.8,5.6-0.8c1.9,0,3.5,0.4,4.6,1.3c1.1,0.8,1.7,2,1.7,3.3c0,2.2-1.1,4-3.3,5.5
		c-2.2,1.5-4.8,2.3-7.8,2.3c-3.6,0-6.5-1.2-8.8-3.6c-1.6-0.1-3-0.6-4-1.6s-1.5-2-1.5-3.4c0-1.3,0.5-2.5,1.5-3.7
		c1-1.2,2.4-2.1,4.3-2.7C47.7,23.4,46.1,21.1,46.1,18z M63.7,34.6c-0.9,0-2.9,0.3-5.9,0.8c-3,0.5-5,0.8-6.1,0.8
		c1.9,1.9,4.4,2.8,7.6,2.8c1.7,0,3.4-0.3,4.9-0.9c1.5-0.6,2.3-1.2,2.3-2C66.4,35.1,65.5,34.6,63.7,34.6z M56.5,25.3
		c0.3,0.2,0.7,0.3,1.1,0.3c0.4,0,0.8-0.1,1.1-0.3c0.3-0.2,0.6-0.5,0.8-0.9c0.2-0.4,0.3-0.8,0.5-1.2s0.2-0.9,0.2-1.6
		c0-0.7,0.1-1.3,0.1-1.7c0-0.4,0-1,0-1.9c0-0.8,0-1.4,0-1.9c0-0.4,0-1-0.1-1.7s-0.1-1.2-0.2-1.6s-0.3-0.8-0.5-1.2
		c-0.2-0.4-0.4-0.7-0.8-0.9c-0.3-0.2-0.7-0.3-1.1-0.3c-0.4,0-0.8,0.1-1.1,0.3c-0.3,0.2-0.6,0.5-0.8,0.9c-0.2,0.4-0.3,0.8-0.5,1.2
		c-0.1,0.4-0.2,0.9-0.2,1.6s-0.1,1.3-0.1,1.7c0,0.4,0,1,0,1.9c0,0.8,0,1.4,0,1.9c0,0.4,0,1,0.1,1.7c0,0.7,0.1,1.2,0.2,1.6
		c0.1,0.4,0.3,0.8,0.5,1.2C56,24.8,56.2,25.1,56.5,25.3z"/>
	<path d="M78.5,30.8c-1.3,0-2.4-0.4-3.4-1.2c-0.9-0.8-1.4-1.7-1.4-2.8c0-1.1,0.5-2.1,1.4-2.8c0.9-0.8,2-1.2,3.4-1.2s2.5,0.4,3.4,1.2
		c0.9,0.8,1.4,1.7,1.4,2.8c0,1.1-0.5,2.1-1.4,2.8C81,30.4,79.9,30.8,78.5,30.8z"/>
	<path d="M104.5,30.8c-3.7,0-6.5-0.8-8.6-2.3c-2.1-1.5-3.1-3.6-3.1-6.1c0-2.6,1.4-4.7,4.1-6.4c-2.3-2.1-3.4-4.3-3.4-6.8
		c0-2.4,1-4.3,3-5.6c2-1.3,4.6-1.9,7.8-1.9s5.7,0.6,7.5,1.9c1.8,1.3,2.7,2.9,2.7,4.9c0,2-1.1,3.8-3.4,5.3c3.6,2.4,5.4,5.1,5.4,8.1
		c0,2.5-1.1,4.6-3.3,6.3C111.1,29.9,108.2,30.8,104.5,30.8z M106.5,28.8c1-0.7,1.5-1.7,1.5-3c0-1.3-0.5-2.4-1.5-3.3
		c-1-0.9-2.5-1.9-4.5-3.1c-2-1.2-3.4-2.1-4.4-2.9c-1.2,0.8-2.2,1.7-2.9,2.8c-0.7,1.1-1,2.2-1,3.2c0,2.1,0.8,3.8,2.5,5.2
		c1.7,1.4,3.8,2.1,6.3,2.1C104.2,29.9,105.5,29.5,106.5,28.8z M104.8,9.6c1.1,0.9,2.2,1.7,3.3,2.4c1.1,0.7,1.9,1.1,2.3,1.4
		c2.2-1.4,3.3-2.9,3.3-4.6c0-1.7-0.6-3.1-1.8-4.1c-1.2-1-2.7-1.5-4.5-1.5c-1.2,0-2.2,0.3-3,0.9c-0.8,0.6-1.2,1.5-1.2,2.6
		S103.8,8.7,104.8,9.6z"/>
</g>
<g>
	<path d="M4.8,46.5v5.3c0,0.3,0.1,0.5,0.2,0.7c0.1,0.1,0.3,0.2,0.6,0.2l1.7,0.2v1.4H0.5v-1.4l1.4-0.2c0.3,0,0.5-0.1,0.6-0.2
		c0.1-0.1,0.1-0.3,0.1-0.7V39.7c0-0.3,0-0.5-0.1-0.7s-0.3-0.2-0.6-0.2l-1.4-0.2v-1.4h6.7c1.9,0,3.3,0.3,4.4,1c1,0.7,1.5,1.8,1.5,3.3
		c0,1.8-0.8,3-2.3,3.9C10,45.7,9.3,46,8.5,46.1c0.5,0.1,1.1,0.6,1.7,1.5l2.8,4.1c0.6,0.8,1.3,1.3,2,1.3c0.2,0,0.5-0.1,0.9-0.2
		L15.7,54c-0.5,0.3-1.2,0.5-2,0.5c-1.1,0-2.1-0.7-3-2l-3.4-5.1c-0.4-0.6-1-1-1.6-1H4.8z M4.8,38.8v6h2.3c1.2,0,2-0.2,2.5-0.6
		c0.7-0.5,1-1.4,1-2.6c0-1.9-1.3-2.9-3.9-2.9H4.8z"/>
	<path d="M26.8,48.5l-8.2,0.5c0.1,2.6,1.3,3.9,3.8,3.9c1.2,0,2.5-0.2,4-0.7l0.4,1.2c-0.5,0.2-1.1,0.4-1.8,0.6
		c-1.2,0.3-2.3,0.5-3.3,0.5c-1.8,0-3.1-0.5-4-1.6c-0.9-1-1.3-2.5-1.3-4.3s0.5-3.3,1.5-4.4c1-1.1,2.4-1.7,4.2-1.7
		c1.8,0,3.1,0.5,3.7,1.5C26.4,45.1,26.8,46.5,26.8,48.5z M18.5,47.6l6.2-0.5c0-0.9-0.2-1.6-0.6-2.1c-0.4-0.5-1.2-0.8-2.4-0.8
		c-1.2,0-2,0.2-2.4,0.6C18.9,45.3,18.7,46.2,18.5,47.6z"/>
	<path d="M38.6,52.3l0.3,1.2c0,0-0.2,0.1-0.4,0.1c-0.2,0.1-0.4,0.2-0.6,0.2s-0.4,0.1-0.7,0.2c-0.3,0.1-0.6,0.2-0.9,0.2
		c-0.7,0.1-1.3,0.2-2,0.2c-1.8,0-3.2-0.5-4.1-1.4c-0.9-1-1.4-2.4-1.4-4.2s0.5-3.4,1.6-4.5s2.5-1.7,4.2-1.7c0.8,0,1.5,0.1,2.3,0.3
		c0.7,0.2,1.3,0.4,1.7,0.6l-0.2,2.9h-1.5l-0.4-1.8c-0.6-0.3-1.4-0.5-2.6-0.5c-0.4,0-0.8,0.1-1.3,0.2c-0.4,0.1-0.7,0.3-0.9,0.6
		c-0.6,0.8-0.9,2-0.9,3.8c0,1.2,0.3,2.2,0.9,3s1.5,1.2,2.7,1.2C35.4,53,36.7,52.7,38.6,52.3z"/>
	<path d="M51.4,52.6c-0.5,0.6-1.1,1.1-2,1.4c-0.8,0.4-1.8,0.5-2.9,0.5c-1.9,0-3.3-0.5-4.2-1.6c-0.9-1.1-1.3-2.5-1.3-4.4
		c0-1.5,0.5-2.8,1.4-4c0.5-0.6,1.1-1.1,2-1.4c0.8-0.4,1.8-0.5,2.9-0.5c1.9,0,3.3,0.5,4.2,1.6c0.9,1.1,1.3,2.4,1.3,4.1
		C52.8,50,52.3,51.4,51.4,52.6z M49.6,45.3c-0.7-0.8-1.6-1.1-2.8-1.1s-2,0.2-2.4,0.6s-0.7,1-0.9,1.7c-0.2,0.7-0.3,1.5-0.3,2.2
		c0,1.3,0.3,2.4,1,3.1c0.7,0.8,1.6,1.1,2.8,1.1s2-0.2,2.4-0.6c0.4-0.4,0.7-1,0.9-1.7c0.2-0.7,0.3-1.5,0.3-2.2
		C50.6,47.1,50.2,46.1,49.6,45.3z"/>
	<path d="M56.9,52v-6.8c0-0.3,0-0.6-0.1-0.7s-0.2-0.2-0.5-0.2l-1.4-0.1v-1.2h3.7l0.3,2.4c0.3-0.6,0.8-1.2,1.5-1.8
		c0.7-0.6,1.5-0.8,2.4-0.8s1.6,0.2,2.1,0.5l-0.2,3h-1.5l-0.3-1.5c-0.2-0.1-0.6-0.2-0.9-0.2c-0.7,0-1.4,0.3-1.9,0.9
		c-0.6,0.6-0.9,1.2-1.1,1.8V52c0,0.3,0,0.6,0.1,0.7s0.2,0.2,0.5,0.2l1.9,0.2v1.3h-6.5V53l1.5-0.1c0.3,0,0.4-0.1,0.5-0.2
		S56.9,52.3,56.9,52z"/>
	<path d="M76.8,35.7V52c0,0.3,0,0.6,0.1,0.7c0.1,0.1,0.2,0.2,0.5,0.2l1.5,0.1v1.3h-3.8l-0.2-1.6c-0.2,0.2-0.4,0.5-0.6,0.7
		c-0.3,0.2-0.7,0.5-1.3,0.7c-0.6,0.3-1.3,0.4-2,0.4c-1.5,0-2.7-0.5-3.5-1.5c-0.9-1-1.3-2.3-1.3-4.1c0-1.7,0.5-3.2,1.6-4.5
		c1.1-1.2,2.6-1.9,4.4-1.9c0.9,0,1.7,0.1,2.7,0.4v-5c0-0.3,0-0.6-0.1-0.7c-0.1-0.1-0.3-0.2-0.5-0.2L72.6,37v-1.2H76.8z M74.8,51.1
		v-6c-0.7-0.6-1.6-0.9-2.8-0.9c-1.2,0-2.1,0.2-2.6,0.6c-0.3,0.3-0.6,0.8-0.8,1.6c-0.2,0.8-0.3,1.5-0.3,2.2c0,2.9,1.1,4.4,3.3,4.4
		c0.8,0,1.5-0.2,2.1-0.7S74.7,51.4,74.8,51.1z"/>
	<path d="M84.7,42.9V52c0,0.3,0,0.6,0.1,0.7c0.1,0.1,0.2,0.2,0.5,0.2l1.4,0.1v1.3h-6V53l1.4-0.1c0.3,0,0.4-0.1,0.5-0.2
		c0.1-0.1,0.1-0.3,0.1-0.7v-6.8c0-0.3,0-0.6-0.1-0.7s-0.2-0.2-0.5-0.2l-1.4-0.1v-1.2H84.7z M83.5,37.3c0.6,0,1,0.1,1.2,0.3
		c0.2,0.2,0.3,0.6,0.3,1.1s-0.1,0.9-0.4,1.1c-0.2,0.2-0.6,0.3-1.2,0.3s-0.9-0.1-1.2-0.3s-0.3-0.6-0.3-1c0-0.5,0.1-0.9,0.4-1.1
		C82.5,37.4,82.9,37.3,83.5,37.3z"/>
	<path d="M102.8,54.3h-4v-7.7c0-0.7-0.2-1.3-0.7-1.6c-0.5-0.4-1.1-0.6-1.9-0.6c-0.8,0-1.5,0.2-2.1,0.5c-0.6,0.4-1.1,0.8-1.4,1.3V52
		c0,0.3,0,0.6,0.1,0.7s0.2,0.2,0.5,0.2l1.5,0.2v1.3h-6.1V53l1.4-0.1c0.3,0,0.4-0.1,0.5-0.2s0.1-0.4,0.1-0.7v-6.8
		c0-0.3,0-0.6-0.1-0.7s-0.2-0.2-0.5-0.2l-1.4-0.1v-1.2h3.8l0.2,1.7c0.4-0.4,0.7-0.7,1-0.9c0.3-0.2,0.7-0.4,1.3-0.7s1.3-0.4,2-0.4
		c1.4,0,2.4,0.3,3,1c0.6,0.7,0.9,1.5,0.9,2.4V52c0,0.3,0,0.6,0.1,0.7c0.1,0.1,0.2,0.2,0.5,0.2l1.4,0.1V54.3z"/>
	<path d="M115.8,42.1v1.3c-0.6,0.4-1.3,0.6-2,0.6c0.6,0.7,0.9,1.7,0.9,2.9c0,1.2-0.5,2.3-1.5,3.1c-1,0.8-2.3,1.2-3.9,1.2
		c-0.3,0-0.6,0-0.8,0l-0.6,1.4c0,0.3,0.3,0.4,0.8,0.5c1.5,0.2,2.9,0.4,4.3,0.6c1.6,0.2,2.5,1.1,2.5,2.5c0,1.1-0.6,2.1-1.7,2.8
		c-1.1,0.8-2.6,1.2-4.4,1.2c-1.1,0-2.2-0.1-3.1-0.4s-1.7-0.6-2.2-1l0.5-2.9h1.4v1.8c0.9,0.6,2.2,0.8,3.9,0.8c1.1,0,2-0.1,2.6-0.4
		s0.9-0.8,0.9-1.5c0-0.3-0.2-0.6-0.4-0.8c-0.3-0.2-1-0.3-2.2-0.4s-2.2-0.3-3.2-0.4c-1.2-0.2-1.8-0.9-1.8-2.1l1.3-1.9
		c-1.8-0.6-2.7-2-2.7-4c0-1.2,0.5-2.2,1.4-3.1c0.9-0.9,2.3-1.3,4.1-1.3h0.1c1.4,0,2.4,0,3.1-0.1S114.8,42.4,115.8,42.1z M112.1,49
		c0.3-0.4,0.5-1.1,0.5-2.1c0-2-1.1-2.9-3.2-2.9c-1.1,0-1.9,0.2-2.3,0.8c-0.4,0.5-0.6,1.2-0.6,2.2s0.3,1.7,0.8,2.2
		c0.5,0.5,1.3,0.8,2.4,0.8C110.9,49.9,111.6,49.6,112.1,49z"/>
</g>
<text transform="matrix(1 0 0 1 -190.1019 34.379)" fill="#757576" font-family="'ArialMT'" font-size="14">10</text>
</svg>
