<?xml version="1.0" encoding="utf-8"?>
<!-- Generator: Adobe Illustrator 18.1.1, SVG Export Plug-In . SVG Version: 6.00 Build 0)  -->
<!DOCTYPE svg PUBLIC "-//W3C//DTD SVG 1.1//EN" "http://www.w3.org/Graphics/SVG/1.1/DTD/svg11.dtd">
<svg version="1.1" id="Layer_1" xmlns="http://www.w3.org/2000/svg" xmlns:xlink="http://www.w3.org/1999/xlink" x="0px" y="0px"
	 viewBox="0 0 116.6 60.2" enable-background="new 0 0 116.6 60.2" xml:space="preserve">
<g>
	<path fill="#FFFFFF" d="M16.7,29.3V30H0v-0.7h3.2V2L0,1.5l0.2-0.7c2.7,0.5,5.5,0.7,8.3,0.7s5.7-0.3,8.7-0.8C20.1,0.3,22.4,0,24,0
		c1.6,0,2.9,0.4,4.1,1.3c1.2,0.8,1.8,2,1.8,3.4s-0.5,2.6-1.6,3.5s-2.2,1.4-3.6,1.4c-1.4,0-2.6-0.4-3.5-1.1c-1-0.7-1.4-1.7-1.4-2.7
		s0.4-2,1.2-2.7c0.8-0.8,1.8-1.1,3-1.1c1.9,0,3.1,0.6,3.7,1.8c0,0.1,0.1,0.2,0.2,0.3c0.1,0.2,0.2,0.3,0.4,0.3c0.3,0,0.5-0.1,0.5-0.4
		c0-0.6-0.4-1.3-1.3-2c-0.9-0.7-1.9-1-3.2-1c-1.3,0-2.3,0.1-3.2,0.2c-0.9,0.1-2,0.3-3.4,0.5c-1.4,0.3-2.8,0.5-4.1,0.6v13.2h2
		c2,0,3.4-0.4,4.3-1.2c0.9-0.8,1.3-2.1,1.3-4h0.8v11.1h-0.8c0-1.8-0.4-3.2-1.3-4c-0.9-0.8-2.3-1.2-4.3-1.2h-2v13.3H16.7z"/>
	<path fill="#FFFFFF" d="M30.9,11.2h-3.6v-0.7h3c3.6,0,7-0.3,10-0.8v19.5h3.1V30H27.8v-0.7h3.1V11.2z M35.6,8
		c-1.3,0-2.4-0.4-3.4-1.2C31.3,6,30.9,5.1,30.9,4c0-1.1,0.5-2.1,1.4-2.8c0.9-0.8,2-1.2,3.4-1.2C37,0,38.1,0.4,39,1.2
		c0.9,0.8,1.4,1.7,1.4,2.8c0,1.1-0.5,2.1-1.4,2.8C38,7.6,36.9,8,35.6,8z"/>
	<path fill="#FFFFFF" d="M46.1,18c0-2.6,1.1-4.7,3.4-6.1c2.2-1.4,5-2.2,8.2-2.2c1,0,2.1,0.1,3.1,0.3c-0.8-0.8-1.3-1.7-1.3-2.9
		c0-1.1,0.5-2.1,1.4-2.9c0.9-0.8,2-1.2,3.4-1.2c1.3,0,2.4,0.3,3.3,1s1.3,1.5,1.3,2.5c0,1-0.4,1.8-1.1,2.5c-0.7,0.6-1.6,0.9-2.6,0.9
		c-1.1,0-1.9-0.3-2.6-0.8c-0.7-0.5-1-1.2-1-2c0-0.8,0.3-1.5,1-1.9C63,5,63.2,4.7,63.2,4.5c0-0.3-0.1-0.4-0.5-0.4
		c-0.2,0-0.5,0.1-0.8,0.3c-1.1,0.7-1.7,1.6-1.7,2.8c0,1.5,1,2.7,3.1,3.5c3.8,1.4,5.8,3.8,5.8,7.3c0,2.6-1.1,4.7-3.4,6.1
		c-2.2,1.4-5,2.2-8.2,2.2c-2.2,0-4.2-0.3-5.9-1c-2.1,0.8-3.2,1.5-3.2,2.4c0,0.6,0.3,0.9,0.8,1.1c0.5,0.2,1.5,0.3,2.8,0.3
		s3.4-0.3,6.2-0.8c2.9-0.6,4.7-0.8,5.6-0.8c1.9,0,3.5,0.4,4.6,1.3c1.1,0.8,1.7,2,1.7,3.3c0,2.2-1.1,4-3.3,5.5
		c-2.2,1.5-4.8,2.3-7.8,2.3c-3.6,0-6.5-1.2-8.8-3.6c-1.6-0.1-3-0.6-4-1.6s-1.5-2-1.5-3.4c0-1.3,0.5-2.5,1.5-3.7
		c1-1.2,2.4-2.1,4.3-2.7C47.7,23.4,46.1,21.1,46.1,18z M63.7,34.6c-0.9,0-2.9,0.3-5.9,0.8c-3,0.5-5,0.8-6.1,0.8
		c1.9,1.9,4.4,2.8,7.6,2.8c1.7,0,3.4-0.3,4.9-0.9c1.5-0.6,2.3-1.2,2.3-2C66.4,35.1,65.5,34.6,63.7,34.6z M56.5,25.3
		c0.3,0.2,0.7,0.3,1.1,0.3c0.4,0,0.8-0.1,1.1-0.3c0.3-0.2,0.6-0.5,0.8-0.9c0.2-0.4,0.3-0.8,0.5-1.2s0.2-0.9,0.2-1.6
		c0-0.7,0.1-1.3,0.1-1.7c0-0.4,0-1,0-1.9c0-0.8,0-1.4,0-1.9c0-0.4,0-1-0.1-1.7s-0.1-1.2-0.2-1.6s-0.3-0.8-0.5-1.2
		c-0.2-0.4-0.4-0.7-0.8-0.9c-0.3-0.2-0.7-0.3-1.1-0.3c-0.4,0-0.8,0.1-1.1,0.3c-0.3,0.2-0.6,0.5-0.8,0.9c-0.2,0.4-0.3,0.8-0.5,1.2
		c-0.1,0.4-0.2,0.9-0.2,1.6s-0.1,1.3-0.1,1.7c0,0.4,0,1,0,1.9c0,0.8,0,1.4,0,1.9c0,0.4,0,1,0.1,1.7c0,0.7,0.1,1.2,0.2,1.6
		c0.1,0.4,0.3,0.8,0.5,1.2C56,24.8,56.2,25.1,56.5,25.3z"/>
	<path fill="#FFFFFF" d="M78.5,30.8c-1.3,0-2.4-0.4-3.4-1.2c-0.9-0.8-1.4-1.7-1.4-2.8c0-1.1,0.5-2.1,1.4-2.8c0.9-0.8,2-1.2,3.4-1.2
		s2.5,0.4,3.4,1.2c0.9,0.8,1.4,1.7,1.4,2.8c0,1.1-0.5,2.1-1.4,2.8C81,30.4,79.9,30.8,78.5,30.8z"/>
	<path fill="#FFFFFF" d="M104.5,30.8c-3.7,0-6.5-0.8-8.6-2.3c-2.1-1.5-3.1-3.6-3.1-6.1c0-2.6,1.4-4.7,4.1-6.4
		c-2.3-2.1-3.4-4.3-3.4-6.8c0-2.4,1-4.3,3-5.6c2-1.3,4.6-1.9,7.8-1.9s5.7,0.6,7.5,1.9c1.8,1.3,2.7,2.9,2.7,4.9c0,2-1.1,3.8-3.4,5.3
		c3.6,2.4,5.4,5.1,5.4,8.1c0,2.5-1.1,4.6-3.3,6.3C111.1,29.9,108.2,30.8,104.5,30.8z M106.5,28.8c1-0.7,1.5-1.7,1.5-3
		c0-1.3-0.5-2.4-1.5-3.3c-1-0.9-2.5-1.9-4.5-3.1c-2-1.2-3.4-2.1-4.4-2.9c-1.2,0.8-2.2,1.7-2.9,2.8c-0.7,1.1-1,2.2-1,3.2
		c0,2.1,0.8,3.8,2.5,5.2c1.7,1.4,3.8,2.1,6.3,2.1C104.2,29.9,105.5,29.5,106.5,28.8z M104.8,9.6c1.1,0.9,2.2,1.7,3.3,2.4
		c1.1,0.7,1.9,1.1,2.3,1.4c2.2-1.4,3.3-2.9,3.3-4.6c0-1.7-0.6-3.1-1.8-4.1c-1.2-1-2.7-1.5-4.5-1.5c-1.2,0-2.2,0.3-3,0.9
		c-0.8,0.6-1.2,1.5-1.2,2.6S103.8,8.7,104.8,9.6z"/>
</g>
<g>
	<path fill="#FFFFFF" d="M4.8,46.5v5.3c0,0.3,0.1,0.5,0.2,0.7c0.1,0.1,0.3,0.2,0.6,0.2l1.7,0.2v1.4H0.5v-1.4l1.4-0.2
		c0.3,0,0.5-0.1,0.6-0.2c0.1-0.1,0.1-0.3,0.1-0.7V39.7c0-0.3,0-0.5-0.1-0.7s-0.3-0.2-0.6-0.2l-1.4-0.2v-1.4h6.7c1.9,0,3.3,0.3,4.4,1
		c1,0.7,1.5,1.8,1.5,3.3c0,1.8-0.8,3-2.3,3.9C10,45.7,9.3,46,8.5,46.1c0.5,0.1,1.1,0.6,1.7,1.5l2.8,4.1c0.6,0.8,1.3,1.3,2,1.3
		c0.2,0,0.5-0.1,0.9-0.2L15.7,54c-0.5,0.3-1.2,0.5-2,0.5c-1.1,0-2.1-0.7-3-2l-3.4-5.1c-0.4-0.6-1-1-1.6-1H4.8z M4.8,38.8v6h2.3
		c1.2,0,2-0.2,2.5-0.6c0.7-0.5,1-1.4,1-2.6c0-1.9-1.3-2.9-3.9-2.9H4.8z"/>
	<path fill="#FFFFFF" d="M26.8,48.5l-8.2,0.5c0.1,2.6,1.3,3.9,3.8,3.9c1.2,0,2.5-0.2,4-0.7l0.4,1.2c-0.5,0.2-1.1,0.4-1.8,0.6
		c-1.2,0.3-2.3,0.5-3.3,0.5c-1.8,0-3.1-0.5-4-1.6c-0.9-1-1.3-2.5-1.3-4.3s0.5-3.3,1.5-4.4c1-1.1,2.4-1.7,4.2-1.7
		c1.8,0,3.1,0.5,3.7,1.5C26.4,45.1,26.8,46.5,26.8,48.5z M18.5,47.6l6.2-0.5c0-0.9-0.2-1.6-0.6-2.1c-0.4-0.5-1.2-0.8-2.4-0.8
		c-1.2,0-2,0.2-2.4,0.6C18.9,45.3,18.7,46.2,18.5,47.6z"/>
	<path fill="#FFFFFF" d="M38.6,52.3l0.3,1.2c0,0-0.2,0.1-0.4,0.1c-0.2,0.1-0.4,0.2-0.6,0.2s-0.4,0.1-0.7,0.2
		c-0.3,0.1-0.6,0.2-0.9,0.2c-0.7,0.1-1.3,0.2-2,0.2c-1.8,0-3.2-0.5-4.1-1.4c-0.9-1-1.4-2.4-1.4-4.2s0.5-3.4,1.6-4.5s2.5-1.7,4.2-1.7
		c0.8,0,1.5,0.1,2.3,0.3c0.7,0.2,1.3,0.4,1.7,0.6l-0.2,2.9h-1.5l-0.4-1.8c-0.6-0.3-1.4-0.5-2.6-0.5c-0.4,0-0.8,0.1-1.3,0.2
		c-0.4,0.1-0.7,0.3-0.9,0.6c-0.6,0.8-0.9,2-0.9,3.8c0,1.2,0.3,2.2,0.9,3s1.5,1.2,2.7,1.2C35.4,53,36.7,52.7,38.6,52.3z"/>
	<path fill="#FFFFFF" d="M51.4,52.6c-0.5,0.6-1.1,1.1-2,1.4c-0.8,0.4-1.8,0.5-2.9,0.5c-1.9,0-3.3-0.5-4.2-1.6
		c-0.9-1.1-1.3-2.5-1.3-4.4c0-1.5,0.5-2.8,1.4-4c0.5-0.6,1.1-1.1,2-1.4c0.8-0.4,1.8-0.5,2.9-0.5c1.9,0,3.3,0.5,4.2,1.6
		c0.9,1.1,1.3,2.4,1.3,4.1C52.8,50,52.3,51.4,51.4,52.6z M49.6,45.3c-0.7-0.8-1.6-1.1-2.8-1.1s-2,0.2-2.4,0.6s-0.7,1-0.9,1.7
		c-0.2,0.7-0.3,1.5-0.3,2.2c0,1.3,0.3,2.4,1,3.1c0.7,0.8,1.6,1.1,2.8,1.1s2-0.2,2.4-0.6c0.4-0.4,0.7-1,0.9-1.7
		c0.2-0.7,0.3-1.5,0.3-2.2C50.6,47.1,50.2,46.1,49.6,45.3z"/>
	<path fill="#FFFFFF" d="M56.9,52v-6.8c0-0.3,0-0.6-0.1-0.7s-0.2-0.2-0.5-0.2l-1.4-0.1v-1.2h3.7l0.3,2.4c0.3-0.6,0.8-1.2,1.5-1.8
		c0.7-0.6,1.5-0.8,2.4-0.8s1.6,0.2,2.1,0.5l-0.2,3h-1.5l-0.3-1.5c-0.2-0.1-0.6-0.2-0.9-0.2c-0.7,0-1.4,0.3-1.9,0.9
		c-0.6,0.6-0.9,1.2-1.1,1.8V52c0,0.3,0,0.6,0.1,0.7s0.2,0.2,0.5,0.2l1.9,0.2v1.3h-6.5V53l1.5-0.1c0.3,0,0.4-0.1,0.5-0.2
		S56.9,52.3,56.9,52z"/>
	<path fill="#FFFFFF" d="M76.8,35.7V52c0,0.3,0,0.6,0.1,0.7c0.1,0.1,0.2,0.2,0.5,0.2l1.5,0.1v1.3h-3.8l-0.2-1.6
		c-0.2,0.2-0.4,0.5-0.6,0.7c-0.3,0.2-0.7,0.5-1.3,0.7c-0.6,0.3-1.3,0.4-2,0.4c-1.5,0-2.7-0.5-3.5-1.5c-0.9-1-1.3-2.3-1.3-4.1
		c0-1.7,0.5-3.2,1.6-4.5c1.1-1.2,2.6-1.9,4.4-1.9c0.9,0,1.7,0.1,2.7,0.4v-5c0-0.3,0-0.6-0.1-0.7c-0.1-0.1-0.3-0.2-0.5-0.2L72.6,37
		v-1.2H76.8z M74.8,51.1v-6c-0.7-0.6-1.6-0.9-2.8-0.9c-1.2,0-2.1,0.2-2.6,0.6c-0.3,0.3-0.6,0.8-0.8,1.6c-0.2,0.8-0.3,1.5-0.3,2.2
		c0,2.9,1.1,4.4,3.3,4.4c0.8,0,1.5-0.2,2.1-0.7S74.7,51.4,74.8,51.1z"/>
	<path fill="#FFFFFF" d="M84.7,42.9V52c0,0.3,0,0.6,0.1,0.7c0.1,0.1,0.2,0.2,0.5,0.2l1.4,0.1v1.3h-6V53l1.4-0.1
		c0.3,0,0.4-0.1,0.5-0.2c0.1-0.1,0.1-0.3,0.1-0.7v-6.8c0-0.3,0-0.6-0.1-0.7s-0.2-0.2-0.5-0.2l-1.4-0.1v-1.2H84.7z M83.5,37.3
		c0.6,0,1,0.1,1.2,0.3c0.2,0.2,0.3,0.6,0.3,1.1s-0.1,0.9-0.4,1.1c-0.2,0.2-0.6,0.3-1.2,0.3s-0.9-0.1-1.2-0.3s-0.3-0.6-0.3-1
		c0-0.5,0.1-0.9,0.4-1.1C82.5,37.4,82.9,37.3,83.5,37.3z"/>
	<path fill="#FFFFFF" d="M102.8,54.3h-4v-7.7c0-0.7-0.2-1.3-0.7-1.6c-0.5-0.4-1.1-0.6-1.9-0.6c-0.8,0-1.5,0.2-2.1,0.5
		c-0.6,0.4-1.1,0.8-1.4,1.3V52c0,0.3,0,0.6,0.1,0.7s0.2,0.2,0.5,0.2l1.5,0.2v1.3h-6.1V53l1.4-0.1c0.3,0,0.4-0.1,0.5-0.2
		s0.1-0.4,0.1-0.7v-6.8c0-0.3,0-0.6-0.1-0.7s-0.2-0.2-0.5-0.2l-1.4-0.1v-1.2h3.8l0.2,1.7c0.4-0.4,0.7-0.7,1-0.9
		c0.3-0.2,0.7-0.4,1.3-0.7s1.3-0.4,2-0.4c1.4,0,2.4,0.3,3,1c0.6,0.7,0.9,1.5,0.9,2.4V52c0,0.3,0,0.6,0.1,0.7
		c0.1,0.1,0.2,0.2,0.5,0.2l1.4,0.1V54.3z"/>
	<path fill="#FFFFFF" d="M115.8,42.1v1.3c-0.6,0.4-1.3,0.6-2,0.6c0.6,0.7,0.9,1.7,0.9,2.9c0,1.2-0.5,2.3-1.5,3.1
		c-1,0.8-2.3,1.2-3.9,1.2c-0.3,0-0.6,0-0.8,0l-0.6,1.4c0,0.3,0.3,0.4,0.8,0.5c1.5,0.2,2.9,0.4,4.3,0.6c1.6,0.2,2.5,1.1,2.5,2.5
		c0,1.1-0.6,2.1-1.7,2.8c-1.1,0.8-2.6,1.2-4.4,1.2c-1.1,0-2.2-0.1-3.1-0.4s-1.7-0.6-2.2-1l0.5-2.9h1.4v1.8c0.9,0.6,2.2,0.8,3.9,0.8
		c1.1,0,2-0.1,2.6-0.4s0.9-0.8,0.9-1.5c0-0.3-0.2-0.6-0.4-0.8c-0.3-0.2-1-0.3-2.2-0.4s-2.2-0.3-3.2-0.4c-1.2-0.2-1.8-0.9-1.8-2.1
		l1.3-1.9c-1.8-0.6-2.7-2-2.7-4c0-1.2,0.5-2.2,1.4-3.1c0.9-0.9,2.3-1.3,4.1-1.3h0.1c1.4,0,2.4,0,3.1-0.1S114.8,42.4,115.8,42.1z
		 M112.1,49c0.3-0.4,0.5-1.1,0.5-2.1c0-2-1.1-2.9-3.2-2.9c-1.1,0-1.9,0.2-2.3,0.8c-0.4,0.5-0.6,1.2-0.6,2.2s0.3,1.7,0.8,2.2
		c0.5,0.5,1.3,0.8,2.4,0.8C110.9,49.9,111.6,49.6,112.1,49z"/>
</g>
</svg>
