<?xml version="1.0" encoding="utf-8"?>
<!-- Generator: Adobe Illustrator 19.0.0, SVG Export Plug-In . SVG Version: 6.00 Build 0)  -->
<!DOCTYPE svg PUBLIC "-//W3C//DTD SVG 1.1//EN" "http://www.w3.org/Graphics/SVG/1.1/DTD/svg11.dtd">
<svg version="1.1" id="Layer_1" xmlns="http://www.w3.org/2000/svg" xmlns:xlink="http://www.w3.org/1999/xlink" x="0px" y="0px"
	 viewBox="0 0 300 200" style="enable-background:new 0 0 300 200;" xml:space="preserve">
<style type="text/css">
	.st0{fill:#FFFFFF;}
</style>
<g id="XMLID_1_">
	<g id="XMLID_19_">
		<path id="XMLID_20_" class="st0" d="M31.8,89.5h27.6v7H39.8v11.7h18v6.9h-18V134h-8V89.5z"/>
		<path id="XMLID_22_" class="st0" d="M68.5,89.9c0-1.5,0.4-2.6,1.3-3.5c0.9-0.8,2.1-1.3,3.6-1.3c1.5,0,2.7,0.4,3.6,1.3
			c0.9,0.8,1.3,2,1.3,3.5c0,1.5-0.4,2.6-1.3,3.5c-0.9,0.8-2.1,1.3-3.6,1.3c-1.6,0-2.8-0.4-3.6-1.3C69,92.6,68.5,91.4,68.5,89.9z
			 M69.5,100.6h8V134h-8V100.6z"/>
		<path id="XMLID_25_" class="st0" d="M93.8,120.3c-2.7-2.3-4-5.1-4-8.6c0-3.6,1.4-6.5,4.2-8.8c2.7-2.1,5.8-3.2,9.3-3.2
			c3.5,0,6.4,0.7,8.8,2c0.3-2.6,1.4-4.7,3.3-6.3c1.9-1.6,4.1-2.4,6.7-2.4l-0.4,7.7c-3.9,0-5.9,1.3-6,3.9c1.7,2.1,2.5,4.2,2.5,6.4
			c0,2.2-0.4,4-1.1,5.5c-0.8,1.5-1.8,2.7-3.1,3.7c-2.7,2.2-6,3.3-9.9,3.3c-2.2,0-4.2-0.3-6-1c-1.8,0.5-2.7,1.6-2.7,3.3
			c0,2.1,1.7,3.1,5.1,3.1h11c7.5,0,11.2,2.6,11.2,7.9c0,1.8-0.4,3.5-1.3,5.2c-0.9,1.7-2.2,3.2-3.8,4.6c-3.7,2.9-8.3,4.4-13.9,4.4
			c-5.4,0-9.8-1.1-13.2-3.4c-3.2-2.1-4.7-4.8-4.7-7.9c0-2.1,0.6-3.7,1.9-4.9c1.2-1.2,2.9-2,4.9-2.3c-2.7-1.6-4-3.7-4-6.1
			c0-1.6,0.5-2.9,1.5-4C90.9,121.6,92.2,120.8,93.8,120.3z M99.9,134.7c-4.2,0.2-6.4,1.8-6.4,4.9c0,1.6,0.9,2.8,2.7,3.7
			c1.8,0.9,3.9,1.4,6.3,1.4c2.4,0,4.3-0.2,5.7-0.6c1.4-0.4,2.5-1,3.5-1.6c2-1.4,3-3,3-4.9c0-0.8-0.3-1.5-0.8-2
			c-0.6-0.5-1.4-0.8-2.5-0.8H99.9z M110.2,111.7c0-1.8-0.5-3.4-1.5-4.5c-1-1.2-2.6-1.7-4.6-1.7c-2.1,0-3.6,0.6-4.7,1.7
			c-1.1,1.2-1.6,2.7-1.6,4.5c0,1.8,0.5,3.4,1.6,4.6c1.1,1.2,2.7,1.8,4.7,1.8c2.1,0,3.6-0.6,4.6-1.8
			C109.7,115,110.2,113.5,110.2,111.7z"/>
		<path id="XMLID_29_" class="st0" d="M152.1,127.9c-2.1,4.4-5.4,6.6-10,6.6c-5.8,0-9.6-2.3-11.5-6.9c-0.7-1.6-1-3.5-1-5.8v-21.2h8
			V121c0,2.2,0.5,3.8,1.6,4.9c1,1.1,2.3,1.6,3.8,1.6c1.5,0,2.8-0.2,3.8-0.7c1-0.4,1.9-1.1,2.7-2c1.7-2,2.5-4.6,2.6-7.9v-16.4h8V134
			h-8V127.9z"/>
		<path id="XMLID_31_" class="st0" d="M180.6,107.3c2-4.8,5-7.2,8.9-7.2c0.8,0,1.7,0.2,2.9,0.5l-0.1,8.1c-1.3-0.3-2.5-0.4-3.7-0.4
			c-5.3,0-8,3.7-8,11.2V134h-8v-33.3h8V107.3z"/>
		<path id="XMLID_33_" class="st0" d="M226.2,109.7c0.6,1.9,0.8,3.7,0.8,5.3c0,1.6-0.1,3-0.3,4.3h-21.2c0.1,2.7,0.7,4.9,2,6.6
			c1.2,1.7,3.1,2.5,5.5,2.5c3.3,0,5.2-1.5,5.9-4.4h8c-0.5,3.3-2.1,6-4.5,7.9c-2.6,2-5.7,3-9.4,3c-4.3,0-8-1.6-10.9-4.8
			c-3-3.3-4.5-7.6-4.5-12.8c0-5.3,1.5-9.6,4.5-12.9c2.9-3.1,6.5-4.7,10.9-4.7c4.5,0,8.1,1.6,10.6,4.9
			C224.8,106.1,225.7,107.8,226.2,109.7z M213.2,106.2c-2.3,0-4,0.7-5.3,2.2c-1.3,1.5-2,3.4-2.2,5.7h14c0-3.6-1.1-6-3.4-7.3
			C215.4,106.5,214.4,106.2,213.2,106.2z"/>
		<path id="XMLID_36_" class="st0" d="M243.5,119.7c0-4.7,1.9-8.4,5.7-11c-1.4-1.3-2.6-2.7-3.4-4.4c-0.9-1.5-1.4-3.4-1.4-5.5
			c0-4.1,1.4-7.4,3.9-10.1c2.4-2.6,5.6-4,9.4-4c3.9,0,7.1,1.4,9.6,4c2.5,2.7,3.8,6,3.8,10.1c0,2.1-0.4,3.9-1.3,5.5
			c-0.9,1.6-2.1,3.1-3.5,4.4c3.7,2.6,5.6,6.3,5.7,11c0,4.4-1.4,7.9-4.1,10.5c-2.8,2.7-6.1,4.1-10.1,4.1c-4,0-7.3-1.4-10-4.1
			C244.9,127.6,243.5,124.1,243.5,119.7z M250.1,119.7c0,2.2,0.8,4.1,2.3,5.5c1.4,1.5,3.2,2.2,5.3,2.2c2.1,0,3.9-0.7,5.4-2.2
			c1.5-1.4,2.2-3.3,2.3-5.5c0-2.3-0.8-4.1-2.3-5.6c-1.4-1.4-3.2-2.1-5.4-2.2c-2.1,0-3.8,0.8-5.3,2.2
			C250.9,115.5,250.2,117.4,250.1,119.7z M251,98.8c0,2.3,0.7,4,2.1,5.2c1.3,1.2,2.9,1.8,4.6,1.8c1.8,0,3.4-0.6,4.7-1.8
			c1.3-1.2,2-2.9,2-5.2c0-2.3-0.7-4.1-2-5.3c-1.3-1.1-2.9-1.7-4.7-1.7c-1.7,0-3.3,0.6-4.6,1.7C251.8,94.7,251.1,96.4,251,98.8z"/>
		<path id="XMLID_40_" class="st0" d="M56.7,159.1c0,2.4-0.7,4.4-2,6.1s-3.2,2.8-5.7,3.5l8.8,13.6H50l-7.2-13h-4.6v13h-6v-33.3h12.2
			c3.9,0,6.9,0.9,9.1,2.8C55.6,153.5,56.7,156,56.7,159.1z M43.8,165.2c2.2,0,3.9-0.5,5-1.5c1.1-1,1.7-2.3,1.7-4c0-1.7-0.5-3-1.5-4
			c-1-1-2.5-1.5-4.6-1.5h-6.2v11H43.8z"/>
		<path id="XMLID_43_" class="st0" d="M84,164c0.4,1.4,0.6,2.8,0.6,4c0,1.2-0.1,2.3-0.2,3.2H68.5c0.1,2,0.6,3.7,1.5,4.9
			c0.9,1.3,2.3,1.9,4.2,1.9c2.5,0,3.9-1.1,4.4-3.3h6c-0.4,2.5-1.5,4.5-3.4,5.9c-1.9,1.5-4.3,2.3-7,2.3c-3.2,0-6-1.2-8.2-3.6
			c-2.3-2.5-3.4-5.7-3.4-9.6c0-4,1.1-7.2,3.4-9.7c2.2-2.3,4.9-3.5,8.2-3.5c3.4,0,6.1,1.2,8,3.6C82.9,161.3,83.5,162.6,84,164z
			 M74.2,161.4c-1.7,0-3,0.6-4,1.7c-0.9,1.1-1.5,2.5-1.7,4.3H79c0-2.7-0.8-4.5-2.5-5.4C75.8,161.6,75.1,161.4,74.2,161.4z"/>
		<path id="XMLID_46_" class="st0" d="M101.1,156.6c1.6,0,2.9,0.3,4.2,0.8c1.2,0.5,2.3,1.2,3.1,2.1c1.7,1.6,2.7,3.7,3,6.2l-6,0.2
			c-0.3-1.1-0.8-2-1.5-2.7c-0.7-0.7-1.6-1.1-2.5-1.1c-0.9,0-1.8,0.1-2.4,0.4c-0.7,0.3-1.3,0.7-1.8,1.4c-1.1,1.4-1.7,3.4-1.7,6
			c0,2.5,0.5,4.4,1.6,5.7c1.1,1.3,2.4,1.9,3.9,1.9c1.5,0,2.7-0.4,3.3-1.1c0.7-0.7,1-1.7,1-3h6c0,2.7-0.9,5-2.7,6.8
			c-1.8,1.8-4.4,2.8-7.7,2.8c-3.2,0-6-1.2-8.2-3.6c-2.3-2.6-3.5-5.8-3.5-9.6c0-4,1.2-7.3,3.5-9.7C95.1,157.7,97.8,156.6,101.1,156.6
			z"/>
		<path id="XMLID_48_" class="st0" d="M128.3,156.6c1.7,0,3.2,0.3,4.7,0.8c1.5,0.5,2.7,1.3,3.8,2.4c2.3,2.4,3.5,5.7,3.5,10
			c0,4.2-1.2,7.5-3.5,9.9c-2.1,2.2-4.9,3.3-8.4,3.3c-3.5,0-6.4-1.1-8.5-3.3c-2.3-2.4-3.5-5.6-3.5-9.9c0-4.3,1.2-7.6,3.5-10
			C121.9,157.7,124.7,156.6,128.3,156.6z M134.2,169.7c0-2.6-0.5-4.6-1.5-5.9c-1-1.3-2.4-2-4.2-2c-1.8,0-3.3,0.7-4.4,2
			c-1.1,1.3-1.7,3.3-1.7,5.9c0,2.6,0.5,4.6,1.5,5.9c1,1.3,2.4,2,4.2,2c1.8,0,3.3-0.7,4.4-2C133.6,174.4,134.2,172.4,134.2,169.7z"/>
		<path id="XMLID_51_" class="st0" d="M153.3,162.2c1.5-3.6,3.7-5.4,6.7-5.4c0.6,0,1.3,0.1,2.2,0.4l-0.1,6.1
			c-0.9-0.2-1.9-0.3-2.8-0.3c-4,0-6,2.8-6,8.4v10.9h-6v-25h6V162.2z"/>
		<path id="XMLID_53_" class="st0" d="M184.4,178.4c-1.5,3-3.9,4.6-7,4.6s-5.8-1.2-7.9-3.6c-2.2-2.5-3.3-5.8-3.3-9.7s1-7.1,3.1-9.5
			c2.1-2.4,4.6-3.5,7.7-3.5c3.1,0,5.4,1.2,6.9,3.7V147h6v35.2h-4.9L184.4,178.4z M178.2,162c-1.7,0-3.1,0.7-4.2,2.1
			c-1.1,1.4-1.7,3.2-1.7,5.6s0.6,4.2,1.7,5.6c1.1,1.4,2.6,2.1,4.4,2.1c1.5,0,2.8-0.6,3.9-1.7c1.2-1.2,1.8-2.7,1.8-4.5v-3.2
			c-0.1-1.8-0.7-3.2-1.8-4.4C181.2,162.6,179.9,162,178.2,162z"/>
		<path id="XMLID_56_" class="st0" d="M199.3,149.2c0-1.1,0.3-2,1-2.6c0.6-0.6,1.6-0.9,2.7-0.9c1.1,0,2.1,0.3,2.7,0.9
			c0.7,0.6,1,1.5,1,2.6c0,1.1-0.3,2-1,2.6s-1.6,0.9-2.7,0.9c-1.2,0-2.1-0.3-2.7-0.9S199.3,150.3,199.3,149.2z M200,157.2h6v25h-6
			V157.2z"/>
		<path id="XMLID_59_" class="st0" d="M222,161.6c1.6-3.3,4.2-5,7.8-5c3,0,5.3,1,6.9,3c1.5,2,2.3,4.7,2.3,8v14.6h-6v-14.6
			c0-1.8-0.4-3.2-1.3-4.2c-0.9-0.9-2.1-1.4-3.7-1.4c-1.6,0-2.9,0.7-4.1,2.2c-1.1,1.4-1.7,3.6-1.8,6.5v11.5h-6v-24.9h5.2L222,161.6z"
			/>
		<path id="XMLID_61_" class="st0" d="M249.8,172c-2-1.7-3-3.8-3-6.4c0-2.7,1-4.9,3.1-6.6c2-1.6,4.3-2.4,7-2.4
			c2.6,0,4.8,0.5,6.6,1.5c0.2-2,1-3.5,2.5-4.7c1.4-1.2,3.1-1.8,5-1.8l-0.3,5.8c-2.9,0-4.4,1-4.5,2.9c1.2,1.6,1.9,3.2,1.9,4.8
			c0,1.6-0.3,3-0.9,4.1c-0.6,1.1-1.4,2-2.3,2.8c-2,1.6-4.5,2.5-7.4,2.5c-1.7,0-3.2-0.3-4.5-0.8c-1.4,0.4-2,1.2-2,2.5
			c0,1.5,1.3,2.3,3.9,2.3h8.3c5.6,0,8.4,2,8.4,6c0,1.3-0.3,2.6-1,3.9s-1.6,2.4-2.9,3.4c-2.8,2.2-6.3,3.3-10.4,3.3
			c-4.1,0-7.3-0.8-9.9-2.5c-2.4-1.6-3.5-3.6-3.5-5.9c0-1.5,0.5-2.8,1.4-3.7c0.9-0.9,2.2-1.5,3.7-1.7c-2-1.2-3-2.8-3-4.6
			c0-1.2,0.4-2.2,1.1-3C247.7,172.9,248.6,172.3,249.8,172z M254.4,182.8c-3.2,0.1-4.8,1.4-4.8,3.6c0,1.2,0.7,2.1,2,2.8
			s2.9,1.1,4.7,1.1c1.8,0,3.3-0.2,4.3-0.5c1-0.3,1.9-0.7,2.6-1.2c1.5-1,2.3-2.3,2.3-3.7c0-0.6-0.2-1.1-0.6-1.5
			c-0.4-0.4-1-0.6-1.9-0.6H254.4z M262.1,165.5c0-1.4-0.4-2.5-1.1-3.4c-0.8-0.9-1.9-1.3-3.5-1.3c-1.6,0-2.7,0.4-3.5,1.3
			c-0.8,0.9-1.2,2-1.2,3.4c0,1.4,0.4,2.5,1.2,3.4c0.8,0.9,2,1.3,3.5,1.3c1.6,0,2.7-0.4,3.5-1.3C261.8,168,262.1,166.9,262.1,165.5z"
			/>
	</g>
	<g id="XMLID_10_">
		<path id="XMLID_11_" class="st0" d="M113.6,70.5c-6.5-7.1-9.7-15.5-9.7-25.1c0-9.7,3.2-18,9.7-25.1l3.9,3.6
			c-2.7,3.4-4.7,6.9-6,10.4c-1.3,3.5-2,7.2-2,11.1c0,3.9,0.7,7.6,2,11.1c1.3,3.4,3.3,6.9,6,10.3L113.6,70.5z"/>
		<path id="XMLID_13_" class="st0" d="M129.8,71.2c-7.1-7.9-10.7-17.1-10.7-27.7c0-10.7,3.6-19.9,10.7-27.7l4.4,3.9
			c-2.9,3.8-5.1,7.6-6.6,11.5c-1.5,3.8-2.2,7.9-2.2,12.3c0,4.4,0.7,8.4,2.2,12.2c1.5,3.8,3.7,7.6,6.6,11.4L129.8,71.2z"/>
		<path id="XMLID_15_" class="st0" d="M170.2,15.8c7.1,7.9,10.7,17.1,10.7,27.7c0,10.5-3.6,19.7-10.7,27.7l-4.4-4.1
			c3-3.8,5.2-7.6,6.7-11.4c1.5-3.8,2.2-7.9,2.2-12.2c0-4.4-0.7-8.5-2.2-12.3c-1.5-3.8-3.7-7.7-6.6-11.5L170.2,15.8z"/>
		<path id="XMLID_17_" class="st0" d="M186.2,19.6c6.6,7.2,9.9,15.7,9.9,25.5c0,9.7-3.3,18.2-9.9,25.5l-4.1-3.7
			c2.7-3.5,4.8-7,6.1-10.5c1.4-3.5,2-7.2,2-11.3c0-4-0.7-7.8-2.1-11.3c-1.4-3.5-3.4-7-6.1-10.6L186.2,19.6z"/>
	</g>
</g>
<g id="XMLID_5_">
	<path id="XMLID_6_" class="st0" d="M140.1,51c0-3.4,1.4-6,4.1-7.9c-1-0.9-1.8-2-2.4-3.1c-0.7-1.1-1-2.4-1-3.9c0-2.9,1-5.3,2.8-7.2
		c1.7-1.9,4-2.8,6.7-2.9c2.8,0,5.1,1,6.9,2.9c1.8,1.9,2.7,4.3,2.7,7.2c0,1.5-0.3,2.8-0.9,3.9c-0.6,1.2-1.5,2.2-2.5,3.1
		c2.7,1.9,4,4.5,4.1,7.9c0,3.1-1,5.7-3,7.5c-2,1.9-4.4,2.9-7.3,2.9c-2.9,0-5.2-1-7.2-2.9C141.2,56.7,140.2,54.2,140.1,51z M144.9,51
		c0,1.6,0.6,2.9,1.7,3.9c1,1.1,2.3,1.6,3.8,1.6c1.5,0,2.8-0.5,3.8-1.6c1-1,1.6-2.3,1.6-3.9c0-1.6-0.6-3-1.6-4c-1-1-2.3-1.5-3.8-1.6
		c-1.5,0-2.7,0.6-3.8,1.6C145.5,48,145,49.4,144.9,51z M145.6,36c0,1.6,0.5,2.9,1.5,3.7c1,0.9,2.1,1.3,3.3,1.3
		c1.3,0,2.4-0.4,3.4-1.3c0.9-0.9,1.4-2.1,1.5-3.7c0-1.7-0.5-2.9-1.5-3.8c-1-0.8-2.1-1.2-3.4-1.2c-1.2,0-2.3,0.4-3.3,1.2
		C146.1,33.1,145.6,34.3,145.6,36z"/>
</g>
</svg>
